<svg id="e54mguw32s2h1" xmlns="http://www.w3.org/2000/svg" xmlns:xlink="http://www.w3.org/1999/xlink" viewBox="0 0 1076.063710 755.227900" shape-rendering="geometricPrecision" text-rendering="geometricPrecision"><path id="e54mguw32s2h2" d="M926.113930,774.809370C919.129410,801.407260,894.654930,818.029030,894.654930,818.029030C894.654930,818.029030,881.504600,791.527100,888.489120,764.929210C895.473640,738.331320,919.948120,721.709550,919.948120,721.709550C919.948120,721.709550,933.098450,748.211480,926.113930,774.809370Z" transform="matrix(1 0 0 1 -61.96810000000000 -72.38600000000000)" fill="rgb(63,61,86)" stroke="none" stroke-width="1"/><path id="e54mguw32s2h3" d="M915.520000,769.182660C895.957490,788.509820,893.768830,818.013940,893.768830,818.013940C893.768830,818.013940,923.297280,816.182530,942.859830,796.855360C962.422380,777.528190,964.610990,748.024070,964.610990,748.024070C964.610990,748.024070,935.082480,749.855490,915.520000,769.182660Z" transform="matrix(1 0 0 1 -61.96810000000000 -72.38600000000000)" fill="rgb(185,60,246)" stroke="none" stroke-width="1"/><path id="e54mguw32s2h4" d="M206.702210,674.194380L243.543610,674.194380L334.331350,638.668740C334.331350,638.668740,398.803800,612.353460,393.540740,662.352500C388.277680,712.351540,379.067330,779.455500,379.067330,779.455500C379.067330,779.455500,350.120520,766.297860,334.331330,770.245150C318.542140,774.192440,329.068270,689.983530,329.068270,689.983530C329.068270,689.983530,200.123370,751.824450,188.281490,743.929870C176.439610,736.035290,173.808090,680.773180,173.808090,680.773180Z" transform="matrix(1 0 0 1 -61.96810000000000 -72.38600000000000)" fill="rgb(47,46,65)" stroke="none" stroke-width="1"/><path id="e54mguw32s2h5" d="M206.702210,674.194380L243.543610,674.194380L334.331350,638.668740C334.331350,638.668740,398.803800,612.353460,393.540740,662.352500C388.277680,712.351540,379.067330,779.455500,379.067330,779.455500C379.067330,779.455500,350.120520,766.297860,334.331330,770.245150C318.542140,774.192440,329.068270,689.983530,329.068270,689.983530C329.068270,689.983530,200.123370,751.824450,188.281490,743.929870C176.439610,736.035290,173.808090,680.773180,173.808090,680.773180Z" transform="matrix(1 0 0 1 -61.96810000000000 -72.38600000000000)" opacity="0.1" fill="rgb(0,0,0)" stroke="none" stroke-width="1"/><path id="e54mguw32s2h6" d="M264.746070,558.820360L309.331830,622.879570L413.277200,709.720000C413.277200,709.720000,509.328000,732.088000,496.170350,747.877170C483.012700,763.666340,402.751090,732.088000,402.751090,732.088000C402.751090,732.088000,283.016540,645.247560,279.069250,638.668730C275.121960,632.089900,231.701740,570.249000,231.701740,570.249000Z" transform="matrix(1 0 0 1 -61.96810000000000 -72.38600000000000)" fill="rgb(160,97,106)" stroke="none" stroke-width="1"/><path id="e54mguw32s2h7" d="M264.746070,558.820360L309.331830,622.879570L413.277200,709.720000C413.277200,709.720000,509.328000,732.088000,496.170350,747.877170C483.012700,763.666340,402.751090,732.088000,402.751090,732.088000C402.751090,732.088000,283.016540,645.247560,279.069250,638.668730C275.121960,632.089900,231.701740,570.249000,231.701740,570.249000Z" transform="matrix(1 0 0 1 -61.96810000000000 -72.38600000000000)" opacity="0.1" fill="rgb(0,0,0)" stroke="none" stroke-width="1"/><path id="e54mguw32s2h8" d="M238.280560,507.092320L267.227370,563.670180C267.227370,563.670180,260.648550,591.301230,250.122430,593.932760C239.596310,596.564290,194.860340,559.722890,194.860340,559.722890Z" transform="matrix(1 0 0 1 -61.96810000000000 -72.38600000000000)" fill="rgb(208,205,225)" stroke="none" stroke-width="1"/><path id="e54mguw32s2h9" d="M238.280560,507.092320L267.227370,563.670180C267.227370,563.670180,260.648550,591.301230,250.122430,593.932760C239.596310,596.564290,194.860340,559.722890,194.860340,559.722890Z" transform="matrix(1 0 0 1 -61.96810000000000 -72.38600000000000)" opacity="0.1" fill="rgb(0,0,0)" stroke="none" stroke-width="1"/><path id="e54mguw32s2h10" d="M591.419300,644.900440L599.970000,680.172000C600.065327,680.565227,600.050523,680.977112,599.927210,681.362480L561.139560,802.573740C560.823036,803.562881,559.858693,804.196632,558.825154,804.094732C557.791614,803.992833,556.969603,803.182959,556.852340,802.151050L551.486530,754.931890C551.450893,754.618292,551.483056,754.300697,551.580840,754.000610L587.183600,644.737000C587.488809,643.800316,588.378790,643.180120,589.363212,643.218105C590.347634,643.256091,591.187177,643.943022,591.419300,644.900440Z" transform="matrix(1 0 0 1 -61.96810000000000 -72.38600000000000)" fill="rgb(47,46,65)" stroke="none" stroke-width="1"/><polygon id="e54mguw32s2h11" points="526.306000,575.493000 534.200000,605.756000 499.990000,716.280000 492.096000,682.070000 526.306000,575.493000" fill="rgb(242,242,242)" stroke="none" stroke-width="1"/><path id="e54mguw32s2h12" d="M415.908730,812.349630C417.224500,816.296920,552.748220,811.033860,554.063980,809.718100C555.211160,808.070365,556.181398,806.306259,556.958600,804.455040C558.195500,801.823510,559.327040,799.191980,559.327040,799.191980L554.064000,756.587530L419.856000,751.824470C419.856000,751.824470,416.500730,787.929050,415.816510,804.455040C415.645640,808.626000,415.645640,811.560120,415.908730,812.349630Z" transform="matrix(1 0 0 1 -61.96810000000000 -72.38600000000000)" fill="rgb(47,46,65)" stroke="none" stroke-width="1"/><polygon id="e54mguw32s2h13" points="474.991000,689.965000 477.622000,726.806000 418.413000,726.806000 418.413000,689.965000 474.991000,689.965000" opacity="0.1" fill="rgb(0,0,0)" stroke="none" stroke-width="1"/><polygon id="e54mguw32s2h14" points="398.677000,701.806000 399.030000,701.736000 397.361000,717.596000 364.467000,717.596000 364.467000,701.806000 398.677000,701.806000" opacity="0.1" fill="rgb(0,0,0)" stroke="none" stroke-width="1"/><path id="e54mguw32s2h15" d="M415.908730,812.349630C417.224500,816.296920,552.748220,811.033860,554.063980,809.718100C555.211160,808.070365,556.181398,806.306259,556.958600,804.455040L415.816540,804.455040C415.645640,808.626000,415.645640,811.560120,415.908730,812.349630Z" transform="matrix(1 0 0 1 -61.96810000000000 -72.38600000000000)" opacity="0.1" fill="rgb(0,0,0)" stroke="none" stroke-width="1"/><circle id="e54mguw32s2h16" r="59.209400" transform="matrix(1 0 0 1 196.04900000000001 357.07600000000002)" fill="rgb(160,97,106)" stroke="none" stroke-width="1"/><path id="e54mguw32s2h17" d="M254.069730,482.092800C254.069730,482.092800,234.333260,516.302670,230.385970,534.723370C226.438680,553.144070,171.176580,497.881970,171.176580,497.881970L163.939880,478.803390C163.939880,478.803390,215.912560,454.461750,211.965270,434.725280C208.017980,414.988810,254.069730,482.092800,254.069730,482.092800Z" transform="matrix(1 0 0 1 -61.96810000000000 -72.38600000000000)" fill="rgb(160,97,106)" stroke="none" stroke-width="1"/><path id="e54mguw32s2h18" d="M264.595840,584.722410L318.542180,655.773680L447.487080,751.824470C447.487080,751.824470,540.906340,771.560940,519.854080,786.034340C498.801820,800.507740,438.276700,772.876700,438.276700,772.876700C438.276700,772.876700,308.016060,703.141190,280.385000,674.194380C252.753940,645.247570,201.439150,596.564290,201.439150,596.564290Z" transform="matrix(1 0 0 1 -61.96810000000000 -72.38600000000000)" fill="rgb(160,97,106)" stroke="none" stroke-width="1"/><path id="e54mguw32s2h19" d="M192.228810,695.246610L208.018000,720.246130L302.249300,690.600320C322.925110,684.095580,345.597130,686.489080,363.936060,698.042610C380.383120,708.404250,390.909230,724.851300,367.225470,749.192940C319.857960,797.876220,288.279620,771.560940,288.279620,771.560940C288.279620,771.560940,129.072120,846.559500,102.756840,809.718100C76.441560,772.876700,75.125840,754.456000,75.125840,754.456000C75.125840,754.456000,176.439640,691.299310,192.228810,695.246610Z" transform="matrix(1 0 0 1 -61.96810000000000 -72.38600000000000)" fill="rgb(47,46,65)" stroke="none" stroke-width="1"/><path id="e54mguw32s2h20" d="M389.593450,782.087050C389.593450,782.087050,431.697900,809.718100,381.698860,822.875740C331.699820,836.033380,294.858420,817.612680,294.858420,817.612680C294.858420,817.612680,251.438200,817.612680,251.438200,795.244680C251.438200,772.876680,265.911610,770.245160,265.911610,770.245160L310.647610,776.823980C310.647610,776.823980,364.593930,762.350590,389.593450,782.087050Z" transform="matrix(1 0 0 1 -61.96810000000000 -72.38600000000000)" fill="rgb(208,205,225)" stroke="none" stroke-width="1"/><path id="e54mguw32s2h21" d="M306.589250,414.567770C310.619250,416.364300,314.615460,418.490680,318.996800,419.012170C323.378140,419.533660,328.367350,418.003980,330.440560,414.109170C331.560380,412.005440,331.688340,409.530910,331.740560,407.148280C331.899050,399.923110,331.376500,392.112370,326.797920,386.520880C323.884020,382.962340,319.630450,380.719050,316.614180,377.246880C314.453180,374.759270,313.014940,371.744040,311.466320,368.835470C305.600320,357.818220,296.915040,347.229880,284.844370,344.053720C279.803960,342.727430,274.516370,342.792150,269.304920,342.865720L238.907670,343.294560C233.988610,343.363960,228.993670,343.444610,224.284670,344.868390C214.500670,347.826620,207.376880,356.054300,200.852510,363.922660C195.971320,369.809340,191.077210,375.756910,187.413890,382.469510C182.161666,392.265261,179.505872,403.242978,179.699660,414.356260C179.658951,417.206463,180.026946,420.047790,180.792420,422.793580C181.687912,425.311859,182.797388,427.748836,184.108690,430.077810C189.809180,441.274540,193.193920,455.260000,186.774120,466.060390C197.925990,461.504970,208.960030,455.532040,216.316440,445.992690C219.607370,441.725210,222.188250,436.729530,226.574020,433.597970C230.959790,430.466410,238.106020,430.194760,240.919940,434.790770C241.887149,436.649998,242.385204,438.717477,242.370740,440.813190C242.576250,444.263020,242.570640,447.845770,244.033320,450.976930C245.496000,454.108090,248.980180,456.634510,252.306690,455.697540C258.035380,454.083960,257.486780,445.291540,261.899200,441.297540C265.250140,438.264360,270.419940,438.844200,274.724940,437.467280C279.740760,435.863000,283.504310,431.517690,285.648730,426.707890C287.278730,423.051950,287.255180,413.484890,290.339570,411.505060C294.207550,409.022190,303.003860,412.969430,306.589250,414.567770Z" transform="matrix(1 0 0 1 -61.96810000000000 -72.38600000000000)" fill="rgb(47,46,65)" stroke="none" stroke-width="1"/><path id="e54mguw32s2h22" d="M159.239700,472.562070C161.903361,471.851380,164.707692,471.858518,167.367700,472.582760C175.813880,474.850290,194.747910,480.853110,198.807590,489.987380C204.070650,501.829260,222.491350,520.249960,222.491350,520.249960C222.491350,520.249960,247.490870,545.249480,242.227810,562.354420C236.964750,579.459360,217.228290,599.195820,217.228290,599.195820C217.228290,599.195820,222.491350,680.773200,196.176060,701.825430C169.860770,722.877660,159.334660,708.404250,159.334660,728.140710C159.334660,747.877170,77.757320,809.718100,61.968140,771.560940C61.968140,771.560940,69.862730,700.509660,67.231200,675.510140C64.637620,650.871160,68.434480,497.145370,159.239700,472.562070Z" transform="matrix(1 0 0 1 -61.96810000000000 -72.38600000000000)" fill="rgb(208,205,225)" stroke="none" stroke-width="1"/><path id="e54mguw32s2h23" d="M201.439160,505.776550C201.439160,505.776550,281.700780,564.985950,267.227370,589.985470C267.227370,589.985470,218.544090,613.669220,208.017980,612.353470C197.491870,611.037720,156.703170,564.985960,146.177060,561.038660C135.650950,557.091360,130.387890,486.040090,201.439160,505.776550Z" transform="matrix(1 0 0 1 -61.96810000000000 -72.38600000000000)" fill="rgb(208,205,225)" stroke="none" stroke-width="1"/><circle id="e54mguw32s2h24" r="65" transform="matrix(1 0 0 1 498.06400000000002 237.45800000000000)" fill="rgb(242,242,242)" stroke="none" stroke-width="1"/><path id="e54mguw32s2h25" d="M1096.897800,225.426660L732.649120,225.426660L732.649120,149.207220L1096.897800,149.207220ZM734.253740,223.822000L1095.293180,223.822000L1095.293180,150.811800L734.253740,150.811800Z" transform="matrix(1 0 0 1 -61.96810000000000 -72.38600000000000)" fill="rgb(63,61,86)" stroke="none" stroke-width="1"/><rect id="e54mguw32s2h26" width="362.644000" height="74.614800" rx="0" ry="0" transform="matrix(1 0 0 1 645.80899999999997 92.06510000000000)" opacity="0" fill="rgb(185,60,246)" stroke="none" stroke-width="1"/><circle id="e54mguw32s2h27" r="5.616240" transform="matrix(1 0 0 1 416.56500000000000 15.24390000000000)" fill="rgb(185,60,246)" stroke="none" stroke-width="1"/><circle id="e54mguw32s2h28" r="5.616240" transform="matrix(1 0 0 1 435.81999999999999 15.24390000000000)" fill="rgb(185,60,246)" stroke="none" stroke-width="1"/><circle id="e54mguw32s2h29" r="5.616240" transform="matrix(1 0 0 1 455.07600000000002 15.24390000000000)" fill="rgb(185,60,246)" stroke="none" stroke-width="1"/><path id="e54mguw32s2h30" d="M1138.031860,512.051870L462.486930,512.051870L462.486930,72.386050L1138.031860,72.386050ZM464.091550,510.447250L1136.427240,510.447250L1136.427240,73.990670L464.091550,73.990670Z" transform="matrix(1 0 0 1 -61.96810000000000 -72.38600000000000)" fill="rgb(63,61,86)" stroke="none" stroke-width="1"/><rect id="e54mguw32s2h31" width="673.940000" height="1.604620" rx="0" ry="0" transform="matrix(1 0 0 1 401.32100000000003 24.33800000000000)" fill="rgb(63,61,86)" stroke="none" stroke-width="1"/><path id="e54mguw32s2h32" d="M480.137750,91.641490C477.541717,91.641490,475.201306,90.077678,474.207848,87.679256C473.214389,85.280834,473.763527,82.520132,475.599199,80.684459C477.434872,78.848787,480.195574,78.299649,482.593996,79.293108C484.992418,80.286566,486.556230,82.626977,486.556230,85.223010C486.552130,88.766139,483.680879,91.637390,480.137750,91.641490ZM480.137750,80.409150C478.190725,80.409150,476.435417,81.582009,475.690323,83.380826C474.945229,85.179642,475.357083,87.250169,476.733837,88.626923C478.110591,90.003677,480.181118,90.415531,481.979934,89.670437C483.778751,88.925343,484.951610,87.170035,484.951610,85.223010C484.948530,82.565666,482.795094,80.412230,480.137750,80.409150Z" transform="matrix(1 0 0 1 -61.96810000000000 -72.38600000000000)" fill="rgb(63,61,86)" stroke="none" stroke-width="1"/><path id="e54mguw32s2h33" d="M499.393190,91.641490C496.797157,91.641490,494.456746,90.077678,493.463288,87.679256C492.469829,85.280834,493.018967,82.520132,494.854639,80.684459C496.690312,78.848787,499.451014,78.299649,501.849436,79.293108C504.247858,80.286566,505.811670,82.626977,505.811670,85.223010C505.807570,88.766139,502.936319,91.637390,499.393190,91.641490ZM499.393190,80.409150C497.446165,80.409150,495.690857,81.582009,494.945763,83.380826C494.200669,85.179642,494.612523,87.250169,495.989277,88.626923C497.366031,90.003677,499.436558,90.415531,501.235374,89.670437C503.034191,88.925343,504.207050,87.170035,504.207050,85.223010C504.203970,82.565666,502.050534,80.412230,499.393190,80.409150Z" transform="matrix(1 0 0 1 -61.96810000000000 -72.38600000000000)" fill="rgb(63,61,86)" stroke="none" stroke-width="1"/><path id="e54mguw32s2h34" d="M518.648630,91.641490C515.103801,91.641496,512.230146,88.767849,512.230140,85.223020C512.230134,81.678191,515.103781,78.804536,518.648610,78.804530C522.193439,78.804524,525.067094,81.678171,525.067100,85.223000C525.063000,88.766127,522.191757,91.637379,518.648630,91.641490ZM518.648630,80.409150C516.701604,80.409146,514.946293,81.582003,514.201196,83.380819C513.456099,85.179634,513.867950,87.250163,515.244703,88.626920C516.621457,90.003676,518.691985,90.415531,520.490802,89.670438C522.289620,88.925344,523.462480,87.170036,523.462480,85.223010C523.459394,82.565672,521.305968,80.412241,518.648630,80.409150Z" transform="matrix(1 0 0 1 -61.96810000000000 -72.38600000000000)" fill="rgb(63,61,86)" stroke="none" stroke-width="1"/><rect id="e54mguw32s2h35" width="1.604620" height="414.346000" rx="0" ry="0" transform="matrix(1 0 0 1 612.10900000000004 25.14040000000000)" fill="rgb(63,61,86)" stroke="none" stroke-width="1"/><rect id="e54mguw32s2h36" width="117.940000" height="16.046200" rx="0" ry="0" transform="matrix(1 0 0 1 688.73299999999995 228.85900000000001)" fill="rgb(242,242,242)" stroke="none" stroke-width="1"/><rect id="e54mguw32s2h37" width="117.940000" height="16.046200" rx="0" ry="0" transform="matrix(1 0 0 1 874.06700000000001 228.85900000000001)" fill="rgb(242,242,242)" stroke="none" stroke-width="1"/><path id="e54mguw32s2h38" d="M875.861430,310.070350L756.317260,310.070350L756.317260,292.419530L875.861430,292.419530ZM757.921880,308.465730L874.256810,308.465730L874.256810,294.024150L757.921880,294.024150Z" transform="matrix(1 0 0 1 -61.96810000000000 -72.38600000000000)" fill="rgb(63,61,86)" stroke="none" stroke-width="1"/><rect id="e54mguw32s2h39" width="117.940000" height="16.046200" rx="0" ry="0" transform="matrix(1 0 0 1 688.73299999999995 353.21699999999998)" fill="rgb(242,242,242)" stroke="none" stroke-width="1"/><path id="e54mguw32s2h40" d="M875.861430,434.428380L756.317260,434.428380L756.317260,416.777570L875.861430,416.777570ZM757.921880,432.823760L874.256810,432.823760L874.256810,418.382190L757.921880,418.382190Z" transform="matrix(1 0 0 1 -61.96810000000000 -72.38600000000000)" fill="rgb(63,61,86)" stroke="none" stroke-width="1"/><rect id="e54mguw32s2h41" width="303.273000" height="16.046200" rx="0" ry="0" transform="matrix(1 0 0 1 689.13400000000001 289.43299999999999)" fill="rgb(242,242,242)" stroke="none" stroke-width="1"/><path id="e54mguw32s2h42" d="M1061.596170,372.249370L756.718410,372.249370L756.718410,354.598550L1061.596170,354.598550ZM758.323000,370.644750L1059.991520,370.644750L1059.991520,356.203170L758.323000,356.203170Z" transform="matrix(1 0 0 1 -61.96810000000000 -72.38600000000000)" fill="rgb(63,61,86)" stroke="none" stroke-width="1"/><path id="e54mguw32s2h43" d="M1061.195000,310.070350L941.650840,310.070350L941.650840,292.419530L1061.195000,292.419530ZM943.255450,308.465730L1059.590380,308.465730L1059.590380,294.024150L943.255460,294.024150Z" transform="matrix(1 0 0 1 -61.96810000000000 -72.38600000000000)" fill="rgb(63,61,86)" stroke="none" stroke-width="1"/><path id="e54mguw32s2h44" d="M571.031860,357.844000C534.581067,357.844000,505.031860,328.294793,505.031860,291.844000C505.031860,255.393207,534.581067,225.844000,571.031860,225.844000C607.482653,225.844000,637.031860,255.393207,637.031860,291.844000C636.990704,328.277733,607.465593,357.802844,571.031860,357.844000ZM571.031860,227.844000C535.685636,227.844000,507.031860,256.497776,507.031860,291.844000C507.031860,327.190224,535.685636,355.844000,571.031860,355.844000C606.378084,355.844000,635.031860,327.190224,635.031860,291.844000C634.991796,256.514384,606.361476,227.884064,571.031860,227.844000Z" transform="matrix(1 0 0 1 -61.96810000000000 -72.38600000000000)" fill="rgb(63,61,86)" stroke="none" stroke-width="1"/><rect id="e54mguw32s2h45" width="283" height="2" rx="0" ry="0" transform="matrix(1 0 0 1 748.06399999999996 744.45799999999997)" fill="rgb(63,61,86)" stroke="none" stroke-width="1"/><script><![CDATA[!function(t,n){"object"==typeof exports&&"undefined"!=typeof module?module.exports=n():"function"==typeof define&&define.amd?define(n):(t=t||self).__SVGATOR_PLAYER__=n()}(this,(function(){"use strict";function t(n){return(t="function"==typeof Symbol&&"symbol"==typeof Symbol.iterator?function(t){return typeof t}:function(t){return t&&"function"==typeof Symbol&&t.constructor===Symbol&&t!==Symbol.prototype?"symbol":typeof t})(n)}function n(t,n){if(!(t instanceof n))throw new TypeError("Cannot call a class as a function")}function r(t,n){for(var r=0;r<n.length;r++){var e=n[r];e.enumerable=e.enumerable||!1,e.configurable=!0,"value"in e&&(e.writable=!0),Object.defineProperty(t,e.key,e)}}function e(t,n,e){return n&&r(t.prototype,n),e&&r(t,e),t}var i=Math.abs;function u(t){return t}function o(t,n,r){var e=1-r;return 3*r*e*(t*e+n*r)+r*r*r}function a(){var t=arguments.length>0&&void 0!==arguments[0]?arguments[0]:0,n=arguments.length>1&&void 0!==arguments[1]?arguments[1]:0,r=arguments.length>2&&void 0!==arguments[2]?arguments[2]:1,e=arguments.length>3&&void 0!==arguments[3]?arguments[3]:1;return t<0||t>1||r<0||r>1?null:i(t-n)<=1e-5&&i(r-e)<=1e-5?u:function(u){if(u<=0)return t>0?u*n/t:0===n&&r>0?u*e/r:0;if(u>=1)return r<1?1+(u-1)*(e-1)/(r-1):1===r&&t<1?1+(u-1)*(n-1)/(t-1):1;for(var a,l=0,f=1;l<f;){var s=o(t,r,a=(l+f)/2);if(i(u-s)<1e-5)break;s<u?l=a:f=a}return o(n,e,a)}}function l(){return 1}function f(t){return 1===t?1:0}function s(){var t=arguments.length>0&&void 0!==arguments[0]?arguments[0]:1,n=arguments.length>1&&void 0!==arguments[1]?arguments[1]:0;if(1===t){if(0===n)return f;if(1===n)return l}var r=1/t;return function(t){return t>=1?1:(t+=n*r)-t%r}}function c(t){var n=arguments.length>1&&void 0!==arguments[1]?arguments[1]:2;if(Number.isInteger(t))return t;var r=Math.pow(10,n);return Math.round(t*r)/r}var v=Math.PI/180;function h(t,n,r){return t>=.5?r:n}function y(t,n,r){return 0===t||n===r?n:t*(r-n)+n}function d(t,n,r){var e=y(t,n,r);return e<=0?0:e}function g(t,n,r){return 0===t?n:1===t?r:{x:y(t,n.x,r.x),y:y(t,n.y,r.y)}}function m(t,n,r){return 0===t?n:1===t?r:{x:d(t,n.x,r.x),y:d(t,n.y,r.y)}}function p(t,n,r){var e=function(t,n,r){return Math.round(y(t,n,r))}(t,n,r);return e<=0?0:e>=255?255:e}function b(t,n,r){return 0===t?n:1===t?r:{r:p(t,n.r,r.r),g:p(t,n.g,r.g),b:p(t,n.b,r.b),a:y(t,null==n.a?1:n.a,null==r.a?1:r.a)}}function w(t,n,r){if(0===t)return n;if(1===t)return r;var e=n.length;if(e!==r.length)return h(t,n,r);for(var i=[],u=0;u<e;u++)i.push(b(t,n[u],r[u]));return i}function A(t,n,r){var e=n.length;if(e!==r.length)return h(t,n,r);for(var i=new Array(e),u=0;u<e;u++)i[u]=y(t,n[u],r[u]);return i}function x(t,n){for(var r=[],e=0;e<t;e++)r.push(n);return r}function k(t,n){if(--n<=0)return t;var r=(t=Object.assign([],t)).length;do{for(var e=0;e<r;e++)t.push(t[e])}while(--n>0);return t}var S=/\.0+$/g;function _(t){return Number.isInteger(t)?t+"":t.toFixed(6).replace(S,"")}function M(t){var n=arguments.length>1&&void 0!==arguments[1]?arguments[1]:" ";return t&&t.length?t.map(_).join(n):""}function I(t){return _(t.x)+","+_(t.y)}function E(t){return t?null==t.a||t.a>=1?"rgb("+t.r+","+t.g+","+t.b+")":"rgba("+t.r+","+t.g+","+t.b+","+t.a+")":"transparent"}var F={f:null,i:m,u:function(t,n){return function(r){var e=n(r);t.setAttribute("rx",_(e.x)),t.setAttribute("ry",_(e.y))}}},B={f:null,i:function(t,n,r){return 0===t?n:1===t?r:{width:d(t,n.width,r.width),height:d(t,n.height,r.height)}},u:function(t,n){return function(r){var e=n(r);t.setAttribute("width",_(e.width)),t.setAttribute("height",_(e.height))}}},j=Math.sin,q=Math.cos,P=Math.acos,O=Math.asin,z=Math.tan,L=Math.atan2,C=Math.PI/180,R=180/Math.PI,T=Math.sqrt,V=function(){function t(){var r=arguments.length>0&&void 0!==arguments[0]?arguments[0]:1,e=arguments.length>1&&void 0!==arguments[1]?arguments[1]:0,i=arguments.length>2&&void 0!==arguments[2]?arguments[2]:0,u=arguments.length>3&&void 0!==arguments[3]?arguments[3]:1,o=arguments.length>4&&void 0!==arguments[4]?arguments[4]:0,a=arguments.length>5&&void 0!==arguments[5]?arguments[5]:0;n(this,t),this.m=[r,e,i,u,o,a],this.i=null,this.w=null,this.s=null}return e(t,[{key:"point",value:function(t,n){var r=this.m;return{x:r[0]*t+r[2]*n+r[4],y:r[1]*t+r[3]*n+r[5]}}},{key:"translateSelf",value:function(){var t=arguments.length>0&&void 0!==arguments[0]?arguments[0]:0,n=arguments.length>1&&void 0!==arguments[1]?arguments[1]:0;if(!t&&!n)return this;var r=this.m;return r[4]+=r[0]*t+r[2]*n,r[5]+=r[1]*t+r[3]*n,this.w=this.s=this.i=null,this}},{key:"rotateSelf",value:function(){var t=arguments.length>0&&void 0!==arguments[0]?arguments[0]:0;if(t%=360){var n=j(t*=C),r=q(t),e=this.m,i=e[0],u=e[1];e[0]=i*r+e[2]*n,e[1]=u*r+e[3]*n,e[2]=e[2]*r-i*n,e[3]=e[3]*r-u*n,this.w=this.s=this.i=null}return this}},{key:"scaleSelf",value:function(){var t=arguments.length>0&&void 0!==arguments[0]?arguments[0]:1,n=arguments.length>1&&void 0!==arguments[1]?arguments[1]:1;if(1!==t||1!==n){var r=this.m;r[0]*=t,r[1]*=t,r[2]*=n,r[3]*=n,this.w=this.s=this.i=null}return this}},{key:"skewSelf",value:function(t,n){if(n%=360,(t%=360)||n){var r=this.m,e=r[0],i=r[1],u=r[2],o=r[3];t&&(t=z(t*C),r[2]+=e*t,r[3]+=i*t),n&&(n=z(n*C),r[0]+=u*n,r[1]+=o*n),this.w=this.s=this.i=null}return this}},{key:"resetSelf",value:function(){var t=arguments.length>0&&void 0!==arguments[0]?arguments[0]:1,n=arguments.length>1&&void 0!==arguments[1]?arguments[1]:0,r=arguments.length>2&&void 0!==arguments[2]?arguments[2]:0,e=arguments.length>3&&void 0!==arguments[3]?arguments[3]:1,i=arguments.length>4&&void 0!==arguments[4]?arguments[4]:0,u=arguments.length>5&&void 0!==arguments[5]?arguments[5]:0,o=this.m;return o[0]=t,o[1]=n,o[2]=r,o[3]=e,o[4]=i,o[5]=u,this.w=this.s=this.i=null,this}},{key:"recomposeSelf",value:function(){var t=arguments.length>0&&void 0!==arguments[0]?arguments[0]:null,n=arguments.length>1&&void 0!==arguments[1]?arguments[1]:null,r=arguments.length>2&&void 0!==arguments[2]?arguments[2]:null,e=arguments.length>3&&void 0!==arguments[3]?arguments[3]:null,i=arguments.length>4&&void 0!==arguments[4]?arguments[4]:null;return this.isIdentity||this.resetSelf(),t&&(t.x||t.y)&&this.translateSelf(t.x,t.y),n&&this.rotateSelf(n),r&&(r.x&&this.skewSelf(r.x,0),r.y&&this.skewSelf(0,r.y)),!e||1===e.x&&1===e.y||this.scaleSelf(e.x,e.y),i&&(i.x||i.y)&&this.translateSelf(i.x,i.y),this}},{key:"decompose",value:function(){var t=arguments.length>0&&void 0!==arguments[0]?arguments[0]:0,n=arguments.length>1&&void 0!==arguments[1]?arguments[1]:0,r=this.m,e=r[0]*r[0]+r[1]*r[1],i=[[r[0],r[1]],[r[2],r[3]]],u=T(e);if(0===u)return{origin:{x:r[4],y:r[5]},translate:{x:t,y:n},scale:{x:0,y:0},skew:{x:0,y:0},rotate:0};i[0][0]/=u,i[0][1]/=u;var o=r[0]*r[3]-r[1]*r[2]<0;o&&(u=-u);var a=i[0][0]*i[1][0]+i[0][1]*i[1][1];i[1][0]-=i[0][0]*a,i[1][1]-=i[0][1]*a;var l=T(i[1][0]*i[1][0]+i[1][1]*i[1][1]);if(0===l)return{origin:{x:r[4],y:r[5]},translate:{x:t,y:n},scale:{x:u,y:0},skew:{x:0,y:0},rotate:0};i[1][0]/=l,i[1][1]/=l,a/=l;var f=0;return i[1][1]<0?(f=P(i[1][1])*R,i[0][1]<0&&(f=360-f)):f=O(i[0][1])*R,o&&(f=-f),a=L(a,T(i[0][0]*i[0][0]+i[0][1]*i[0][1]))*R,{origin:{x:r[4],y:r[5]},translate:{x:t,y:n},scale:{x:u,y:l},skew:{x:a,y:0},rotate:f}}},{key:"toString",value:function(){return null===this.s&&(this.s="matrix("+this.m.map(N).join(" ")+")"),this.s}},{key:"determinant",get:function(){var t=this.m;return t[0]*t[3]-t[1]*t[2]}},{key:"isIdentity",get:function(){if(null===this.i){var t=this.m;this.i=1===t[0]&&0===t[1]&&0===t[2]&&1===t[3]&&0===t[4]&&0===t[5]}return this.i}}]),t}(),D=/\.0+$/;function N(t){return Number.isInteger(t)?t:t.toFixed(14).replace(D,"")}Object.freeze({M:2,L:2,Z:0,H:1,V:1,C:6,Q:4,T:2,S:4,A:7});function G(t,n,r){return t+(n-t)*r}function $(t,n,r){var e=arguments.length>3&&void 0!==arguments[3]&&arguments[3],i={x:G(t.x,n.x,r),y:G(t.y,n.y,r)};return e&&(i.a=H(t,n)),i}function H(t,n){return Math.atan2(n.y-t.y,n.x-t.x)}function Q(t,n,r,e){var i=1-e;return i*i*t+2*i*e*n+e*e*r}function U(t,n,r,e){return 2*(1-e)*(n-t)+2*e*(r-n)}function Y(t,n,r,e){var i=arguments.length>4&&void 0!==arguments[4]&&arguments[4],u={x:Q(t.x,n.x,r.x,e),y:Q(t.y,n.y,r.y,e)};return i&&(u.a=Z(t,n,r,e)),u}function Z(t,n,r,e){return Math.atan2(U(t.y,n.y,r.y,e),U(t.x,n.x,r.x,e))}function J(t,n,r,e,i){var u=i*i;return i*u*(e-t+3*(n-r))+3*u*(t+r-2*n)+3*i*(n-t)+t}function K(t,n,r,e,i){var u=1-i;return 3*(u*u*(n-t)+2*u*i*(r-n)+i*i*(e-r))}function W(t,n,r,e,i){var u=arguments.length>5&&void 0!==arguments[5]&&arguments[5],o={x:J(t.x,n.x,r.x,e.x,i),y:J(t.y,n.y,r.y,e.y,i)};return u&&(o.a=X(t,n,r,e,i)),o}function X(t,n,r,e,i){return Math.atan2(K(t.y,n.y,r.y,e.y,i),K(t.x,n.x,r.x,e.x,i))}function tt(t,n,r){var e=arguments.length>3&&void 0!==arguments[3]&&arguments[3];if(rt(n)){if(et(r))return Y(n,r.start,r,t,e)}else if(rt(r)){if(n.end)return Y(n,n.end,r,t,e)}else{if(n.end)return r.start?W(n,n.end,r.start,r,t,e):Y(n,n.end,r,t,e);if(r.start)return Y(n,r.start,r,t,e)}return $(n,r,t,e)}function nt(t,n,r){var e=tt(t,n,r,!0);return e.a=function(t){var n=arguments.length>1&&void 0!==arguments[1]&&arguments[1];return n?t+Math.PI:t}(e.a)/v,e}function rt(t){return!t.type||"corner"===t.type}function et(t){return null!=t.start&&!rt(t)}var it=new V;var ut={f:function(t){return t?t.join(" "):""},i:function(n,r,e){if(0===n)return r;if(1===n)return e;var i=r.length;if(i!==e.length)return h(n,r,e);for(var u,o=new Array(i),a=0;a<i;a++){if((u=t(r[a]))!==t(e[a]))return h(n,r,e);if("number"===u)o[a]=y(n,r[a],e[a]);else{if(r[a]!==e[a])return h(n,r,e);o[a]=r[a]}}return o}},ot={f:null,i:A,u:function(t,n){return function(r){var e=n(r);t.setAttribute("x1",_(e[0])),t.setAttribute("y1",_(e[1])),t.setAttribute("x2",_(e[2])),t.setAttribute("y2",_(e[3]))}}},at={f:_,i:y},lt={f:_,i:function(t,n,r){var e=y(t,n,r);return e<=0?0:e>=1?1:e}},ft={f:M,i:function(t,n,r){var e,i,u,o=n.length,a=r.length;if(o!==a)if(0===o)n=x(o=a,0);else if(0===a)a=o,r=x(o,0);else{var l=(u=(e=o)*(i=a)/function(t,n){for(var r;n;)r=n,n=t%n,t=r;return t||1}(e,i))<0?-u:u;n=k(n,Math.floor(l/o)),r=k(r,Math.floor(l/a)),o=a=l}for(var f=[],s=0;s<o;s++)f.push(c(d(t,n[s],r[s]),6));return f}};function st(t,n,r,e,i,u,o,a){return n=function(t,n,r){for(var e,i,u,o=t.length-1,a={},l=0;l<=o;l++)(e=t[l]).e&&(e.e=n(e.e)),e.v&&"g"===(i=e.v).t&&i.r&&(u=r.getElementById(i.r))&&(a[i.r]=u.querySelectorAll("stop"));return a}(t,e,a),function(e){var i,u=r(e,t,ct);return u?"c"===u.t?E(u.v):"g"===u.t?(n[u.r]&&function(t,n){for(var r=0,e=t.length;r<e;r++)t[r].setAttribute("stop-color",E(n[r]))}(n[u.r],u.v),(i=u.r)?"url(#"+i+")":"none"):"none":"none"}}function ct(t,n,r){if(0===t)return n;if(1===t)return r;if(n&&r){var e=n.t;if(e===r.t)switch(n.t){case"c":return{t:e,v:b(t,n.v,r.v)};case"g":if(n.r===r.r)return{t:e,v:w(t,n.v,r.v),r:n.r}}}return h(t,n,r)}var vt={blur:m,brightness:d,contrast:d,"drop-shadow":function(t,n,r){return 0===t?n:1===t?r:{blur:m(t,n.blur,r.blur),offset:g(t,n.offset,r.offset),color:b(t,n.color,r.color)}},grayscale:d,"hue-rotate":y,invert:d,opacity:d,saturate:d,sepia:d};function ht(t,n,r){if(0===t)return n;if(1===t)return r;var e=n.length;if(e!==r.length)return h(t,n,r);for(var i,u=[],o=0;o<e;o++){if(n[o].type!==r[o].type)return n;if(!(i=vt[n[o].type]))return h(t,n,r);u.push({type:n.type,value:i(t,n[o].value,r[o].value)})}return u}var yt={blur:function(t){return t?function(n){t.setAttribute("stdDeviation",I(n))}:null},brightness:function(t,n,r){return(t=gt(r,n))?function(n){n=_(n),t.map((function(t){return t.setAttribute("slope",n)}))}:null},contrast:function(t,n,r){return(t=gt(r,n))?function(n){var r=_((1-n)/2);n=_(n),t.map((function(t){t.setAttribute("slope",n),t.setAttribute("intercept",r)}))}:null},"drop-shadow":function(t,n,r){var e=r.getElementById(n+"-blur");if(!e)return null;var i=r.getElementById(n+"-offset");if(!i)return null;var u=r.getElementById(n+"-flood");return u?function(t){e.setAttribute("stdDeviation",I(t.blur)),i.setAttribute("dx",_(t.offset.x)),i.setAttribute("dy",_(t.offset.y)),u.setAttribute("flood-color",E(t.color))}:null},grayscale:function(t){return t?function(n){t.setAttribute("values",M(function(t){return[.2126+.7874*(t=1-t),.7152-.7152*t,.0722-.0722*t,0,0,.2126-.2126*t,.7152+.2848*t,.0722-.0722*t,0,0,.2126-.2126*t,.7152-.7152*t,.0722+.9278*t,0,0,0,0,0,1,0]}(n)))}:null},"hue-rotate":function(t){return t?function(n){return t.setAttribute("values",_(n))}:null},invert:function(t,n,r){return(t=gt(r,n))?function(n){n=_(n)+" "+_(1-n),t.map((function(t){return t.setAttribute("tableValues",n)}))}:null},opacity:function(t,n,r){return(t=r.getElementById(n+"-A"))?function(n){return t.setAttribute("tableValues","0 "+_(n))}:null},saturate:function(t){return t?function(n){return t.setAttribute("values",_(n))}:null},sepia:function(t){return t?function(n){return t.setAttribute("values",M(function(t){return[.393+.607*(t=1-t),.769-.769*t,.189-.189*t,0,0,.349-.349*t,.686+.314*t,.168-.168*t,0,0,.272-.272*t,.534-.534*t,.131+.869*t,0,0,0,0,0,1,0]}(n)))}:null}};var dt=["R","G","B"];function gt(t,n){var r=dt.map((function(r){return t.getElementById(n+"-"+r)||null}));return-1!==r.indexOf(null)?null:r}var mt={fill:st,"fill-opacity":lt,stroke:st,"stroke-opacity":lt,"stroke-width":at,"stroke-dashoffset":{f:_,i:y},"stroke-dasharray":ft,opacity:lt,transform:function(n,r,e,i){if(!(n=function(n,r){if(!n||"object"!==t(n))return null;var e=!1;for(var i in n)n.hasOwnProperty(i)&&(n[i]&&n[i].length?(n[i].forEach((function(t){t.e&&(t.e=r(t.e))})),e=!0):delete n[i]);return e?n:null}(n,i)))return null;var u=function(t,i,u){var o=arguments.length>3&&void 0!==arguments[3]?arguments[3]:null;return n[t]?e(i,n[t],u):r&&r[t]?r[t]:o};return r&&r.a&&n.o?function(t){var r=e(t,n.o,nt);return it.recomposeSelf(r,u("r",t,y,0)+r.a,u("k",t,g),u("s",t,g),u("t",t,g)).toString()}:function(t){return it.recomposeSelf(u("o",t,tt,null),u("r",t,y,0),u("k",t,g),u("s",t,g),u("t",t,g)).toString()}},"#filter":function(t,n,r,e,i,u,o,a){if(!n.items||!t||!t.length)return null;var l=function(t,n){var r=(t=t.map((function(t){return t&&yt[t[0]]?(n.getElementById(t[1]),yt[t[0]](n.getElementById(t[1]),t[1],n)):null}))).length;return function(n){for(var e=0;e<r;e++)t[e]&&t[e](n[e].value)}}(n.items,a);return l?(t=function(t,n){return t.map((function(t){return t.e=n(t.e),t}))}(t,e),function(n){l(r(n,t,ht))}):null},"#line":ot,points:{f:M,i:A},d:ut,r:at,"#size":B,"#radius":F,_:function(t,n){if(Array.isArray(t))for(var r=0;r<t.length;r++)this[t[r]]=n;else this[t]=n}},pt=function(){function t(r){n(this,t),this.list=r,this.length=r.length}return e(t,[{key:"setAttribute",value:function(t,n){for(var r=this.list,e=0;e<this.length;e++)r[e].setAttribute(t,n)}},{key:"removeAttribute",value:function(t){for(var n=this.list,r=0;r<this.length;r++)n[r].removeAttribute(t)}},{key:"style",value:function(t,n){for(var r=this.list,e=0;e<this.length;e++)r[e].style[t]=n}}]),t}(),bt=/-./g,wt=function(t,n){return n.toUpperCase()};function At(t){return"function"==typeof t?t:h}function xt(t){return t?"function"==typeof t?t:Array.isArray(t)?function(t){var n=arguments.length>1&&void 0!==arguments[1]?arguments[1]:u;if(!Array.isArray(t))return n;switch(t.length){case 1:return s(t[0])||n;case 2:return s(t[0],t[1])||n;case 4:return a(t[0],t[1],t[2],t[3])||n}return n}(t,null):function(t,n){var r=arguments.length>2&&void 0!==arguments[2]?arguments[2]:u;switch(t){case"linear":return u;case"steps":return s(n.steps||1,n.jump||0)||r;case"bezier":case"cubic-bezier":return a(n.x1||0,n.y1||0,n.x2||0,n.y2||0)||r}return r}(t.type,t.value,null):null}function kt(t,n,r){var e=arguments.length>3&&void 0!==arguments[3]&&arguments[3],i=n.length-1;if(t<=n[0].t)return e?[0,0,n[0].v]:n[0].v;if(t>=n[i].t)return e?[i,1,n[i].v]:n[i].v;var u,o=n[0],a=null;for(u=1;u<=i;u++){if(!(t>n[u].t)){a=n[u];break}o=n[u]}return null==a?e?[i,1,n[i].v]:n[i].v:o.t===a.t?e?[u,1,a.v]:a.v:(t=(t-o.t)/(a.t-o.t),o.e&&(t=o.e(t)),e?[u,t,r(t,o.v,a.v)]:r(t,o.v,a.v))}function St(t,n){var r=arguments.length>2&&void 0!==arguments[2]?arguments[2]:null;return t&&t.length?"function"!=typeof n?null:("function"!=typeof r&&(r=null),function(e){var i=kt(e,t,n);return null!=i&&r&&(i=r(i)),i}):null}function _t(t,n){return t.t-n.t}function Mt(n,r,e,i,u){var o,a="@"===e[0],l="#"===e[0],f=mt[e],s=h;switch(a?(o=e.substr(1),e=o.replace(bt,wt)):l&&(e=e.substr(1)),t(f)){case"function":if(s=f(i,u,kt,xt,e,a,r,n),l)return s;break;case"string":s=St(i,At(f));break;case"object":if((s=St(i,At(f.i),f.f))&&"function"==typeof f.u)return f.u(r,s,e,a,n)}return s?function(t,n,r){var e=arguments.length>3&&void 0!==arguments[3]&&arguments[3];if(e)return t instanceof pt?function(e){return t.style(n,r(e))}:function(e){return t.style[n]=r(e)};if(Array.isArray(n)){var i=n.length;return function(e){var u=r(e);if(null==u)for(var o=0;o<i;o++)t[o].removeAttribute(n);else for(var a=0;a<i;a++)t[a].setAttribute(n,u)}}return function(e){var i=r(e);null==i?t.removeAttribute(n):t.setAttribute(n,i)}}(r,e,s,a):null}function It(n,r,e,i){if(!i||"object"!==t(i))return null;var u=null,o=null;return Array.isArray(i)?o=function(t){if(!t||!t.length)return null;for(var n=0;n<t.length;n++)t[n].e&&(t[n].e=xt(t[n].e));return t.sort(_t)}(i):(o=i.keys,u=i.data||null),o?Mt(n,r,e,o,u):null}function Et(t,n,r){if(!r)return null;var e=[];for(var i in r)if(r.hasOwnProperty(i)){var u=It(t,n,i,r[i]);u&&e.push(u)}return e.length?e:null}function Ft(t,n){if(!n.duration||n.duration<0)return null;var r=function(t,n){if(!n)return null;var r=[];if(Array.isArray(n))for(var e=n.length,i=0;i<e;i++){var u=n[i];if(2===u.length){var o=null;if("string"==typeof u[0])o=t.getElementById(u[0]);else if(Array.isArray(u[0])){o=[];for(var a=0;a<u[0].length;a++)if("string"==typeof u[0][a]){var l=t.getElementById(u[0][a]);l&&o.push(l)}o=o.length?1===o.length?o[0]:new pt(o):null}if(o){var f=Et(t,o,u[1]);f&&(r=r.concat(f))}}}else for(var s in n)if(n.hasOwnProperty(s)){var c=t.getElementById(s);if(c){var v=Et(t,c,n[s]);v&&(r=r.concat(v))}}return r.length?r:null}(t,n.elements);return r?function(t,n){var r=arguments.length>2&&void 0!==arguments[2]?arguments[2]:1/0,e=arguments.length>3&&void 0!==arguments[3]?arguments[3]:1,i=arguments.length>4&&void 0!==arguments[4]&&arguments[4],u=arguments.length>5&&void 0!==arguments[5]?arguments[5]:1,o=t.length,a=e>0?n:0;i&&r%2==0&&(a=n-a);var l=null;return function(f,s){var c=f%n,v=1+(f-c)/n;s*=e,i&&v%2==0&&(s=-s);var h=!1;if(v>r)c=a,h=!0,-1===u&&(c=e>0?0:n);else if(s<0&&(c=n-c),c===l)return!1;l=c;for(var y=0;y<o;y++)t[y](c);return h}}(r,n.duration,n.iterations||1/0,n.direction||1,!!n.alternate,n.fill||1):null}var Bt=function(){function t(r){var e=arguments.length>1&&void 0!==arguments[1]?arguments[1]:{};n(this,t),this._id=0,this._running=!1,this._animations=r,this.direction=e.direction||1,this.speed=e.speed||1,this.fps=e.fps||100,this.offset=e.offset||0}return e(t,[{key:"_start",value:function(){var t=this,n=arguments.length>0&&void 0!==arguments[0]?arguments[0]:0,r=-1/0,e=null,i={},u=function u(o){t._running=!0,null==e&&(e=o);var a=Math.round((o-e+n)*t.speed),l=t.fps?1e3/t.fps:0;if(a>r+l){t.offset=a,r=a;for(var f=t._animations,s=f.length,c=0,v=0;v<s;v++)i[v]?c++:(i[v]=f[v](a,t.direction),i[v]&&c++);if(c===s)return void t._stop()}t._id=window.requestAnimationFrame(u)};this._id=window.requestAnimationFrame(u)}},{key:"_stop",value:function(){this._id&&window.cancelAnimationFrame(this._id),this._running=!1}},{key:"play",value:function(){this._running||this._start(this.offset)}},{key:"stop",value:function(){this._stop(),this.offset=0;var t=this.direction,n=this._animations;requestAnimationFrame((function(){for(var r=0;r<n.length;r++)n[r](0,t)}))}},{key:"restart",value:function(){this._stop(),this.offset=0,this._start()}},{key:"pause",value:function(){this._stop()}},{key:"reverse",value:function(){this.direction=-this.direction}}],[{key:"build",value:function(n){if(!(n=function(t){if(!t||!t.root||!Array.isArray(t.animations))return null;var n=window.document.getElementById(t.root);if(!n)return null;var r=t.animations.map((function(t){return Ft(n,t)})).filter((function(t){return!!t}));return r.length?{element:n,animations:r,options:t.options||void 0}:null}(n)))return null;var r=n.element,e=n.options||{},i=new t(n.animations,n.options);return function(t,n,r){var e=arguments.length>3&&void 0!==arguments[3]?arguments[3]:null;if("click"===r){var i=function r(){n.removeEventListener("click",r),t.play()};return void n.addEventListener("click",i)}if("hover"===r)return n.addEventListener("mouseenter",(function(){return t.play()})),void n.addEventListener("mouseleave","freeze"===e?function(){return t.pause()}:function(){return t.stop()});t.play()}(i,r,e.start,e.hover),i}}]),t}();return function(){for(var t=0,n=["ms","moz","webkit","o"],r=0;r<n.length&&!window.requestAnimationFrame;++r)window.requestAnimationFrame=window[n[r]+"RequestAnimationFrame"],window.cancelAnimationFrame=window[n[r]+"CancelAnimationFrame"]||window[n[r]+"CancelRequestAnimationFrame"];window.requestAnimationFrame||(window.requestAnimationFrame=function(n){var r=Date.now(),e=Math.max(0,16-(r-t)),i=window.setTimeout((function(){n(r+e)}),e);return t=r+e,i},window.cancelAnimationFrame=window.clearTimeout)}(),Bt}));
__SVGATOR_PLAYER__.build({"root":"e54mguw32s2h1","animations":[{"duration":3000,"direction":1,"iterations":0,"fill":1,"alternate":false,"elements":{"e54mguw32s2h7":{"transform":{"keys":{"o":[{"t":0,"v":{"x":-61.9681,"y":-72.386,"type":"corner"}},{"t":400,"v":{"x":-61.9681,"y":-72.386,"type":"corner"}},{"t":1000,"v":{"x":-59.98347968499997,"y":-80.06624880500001,"type":"corner"}},{"t":3000,"v":{"x":-62.62598500000002,"y":-73.84314153999995,"type":"corner"}}]}}},"e54mguw32s2h18":{"transform":{"keys":{"o":[{"t":0,"v":{"x":-61.9681,"y":-72.386,"type":"corner"}},{"t":200,"v":{"x":-61.9681,"y":-72.386,"type":"corner"}},{"t":600,"v":{"x":-62.25171275999998,"y":-78.86466424999995,"type":"corner"}},{"t":3000,"v":{"x":-64.59954999999997,"y":-63.68492874500001,"type":"corner"}}]}}},"e54mguw32s2h26":{"opacity":[{"t":0,"v":0},{"t":200,"v":0},{"t":400,"v":0.56},{"t":1000,"v":1}]},"e54mguw32s2h36":{"transform":{"data":{"t":{"x":688.733,"y":228.859}},"keys":{"o":[{"t":0,"v":{"x":0,"y":0,"type":"corner"}},{"t":400,"v":{"x":-58.97000000000003,"y":0,"type":"corner"}},{"t":1000,"v":{"x":0.40099999999983993,"y":-4.56869999999995,"type":"corner"}}]}}}}}],"options":{"start":"load","hover":"freeze"}})]]></script></svg>